<svg width="32" height="32" viewBox="0 0 32 32" fill="none" xmlns="http://www.w3.org/2000/svg">
<g clip-path="url(#clip0_1338_2796)">
<path d="M32 0H0V32H32V0Z" fill="#0A0A0A"/>
<path d="M8.26989 23.2301C7.64773 23.2301 7.0831 23.1129 6.57599 22.8786C6.06889 22.6399 5.66619 22.2969 5.3679 21.8494C5.0696 21.3977 4.92045 20.8523 4.92045 20.2131C4.92045 19.6506 5.03125 19.1946 5.25284 18.8452C5.47443 18.4915 5.7706 18.2145 6.14134 18.0142C6.51207 17.8139 6.92116 17.6648 7.36861 17.5668C7.82031 17.4645 8.27415 17.3835 8.73011 17.3239C9.3267 17.2472 9.81037 17.1896 10.1811 17.1513C10.5561 17.1087 10.8288 17.0384 10.9993 16.9403C11.174 16.8423 11.2614 16.6719 11.2614 16.429V16.3778C11.2614 15.7472 11.0888 15.2571 10.7436 14.9077C10.4027 14.5582 9.88494 14.3835 9.19034 14.3835C8.47017 14.3835 7.90554 14.5412 7.49645 14.8565C7.08736 15.1719 6.79972 15.5085 6.63352 15.8665L5.2017 15.3551C5.45739 14.7585 5.7983 14.294 6.22443 13.9616C6.65483 13.625 7.12358 13.3906 7.63068 13.2585C8.14205 13.1222 8.64489 13.054 9.1392 13.054C9.45455 13.054 9.81676 13.0923 10.2259 13.169C10.6392 13.2415 11.0376 13.3928 11.4212 13.6229C11.8089 13.853 12.1307 14.2003 12.3864 14.6648C12.642 15.1293 12.7699 15.7514 12.7699 16.5312V23H11.2614V21.6705H11.1847C11.0824 21.8835 10.9119 22.1115 10.6733 22.3544C10.4347 22.5973 10.1172 22.804 9.72088 22.9744C9.32457 23.1449 8.84091 23.2301 8.26989 23.2301ZM8.5 21.875C9.09659 21.875 9.59943 21.7578 10.0085 21.5234C10.4219 21.2891 10.733 20.9865 10.9418 20.6158C11.1548 20.245 11.2614 19.8551 11.2614 19.446V18.0653C11.1974 18.142 11.0568 18.2124 10.8395 18.2763C10.6264 18.3359 10.3793 18.3892 10.098 18.4361C9.82102 18.4787 9.55043 18.517 9.28622 18.5511C9.02628 18.581 8.81534 18.6065 8.65341 18.6278C8.26136 18.679 7.89489 18.7621 7.55398 18.8771C7.21733 18.9879 6.9446 19.1562 6.7358 19.3821C6.53125 19.6037 6.42898 19.9062 6.42898 20.2898C6.42898 20.8139 6.62287 21.2102 7.01065 21.4787C7.4027 21.7429 7.89915 21.875 8.5 21.875ZM18.4125 23.2301C17.7903 23.2301 17.2257 23.1129 16.7186 22.8786C16.2115 22.6399 15.8088 22.2969 15.5105 21.8494C15.2122 21.3977 15.063 20.8523 15.063 20.2131C15.063 19.6506 15.1738 19.1946 15.3954 18.8452C15.617 18.4915 15.9132 18.2145 16.2839 18.0142C16.6547 17.8139 17.0637 17.6648 17.5112 17.5668C17.9629 17.4645 18.4167 17.3835 18.8727 17.3239C19.4693 17.2472 19.9529 17.1896 20.3237 17.1513C20.6987 17.1087 20.9714 17.0384 21.1419 16.9403C21.3166 16.8423 21.4039 16.6719 21.4039 16.429V16.3778C21.4039 15.7472 21.2314 15.2571 20.8862 14.9077C20.5453 14.5582 20.0275 14.3835 19.3329 14.3835C18.6127 14.3835 18.0481 14.5412 17.639 14.8565C17.2299 15.1719 16.9423 15.5085 16.7761 15.8665L15.3443 15.3551C15.6 14.7585 15.9409 14.294 16.367 13.9616C16.7974 13.625 17.2662 13.3906 17.7733 13.2585C18.2846 13.1222 18.7875 13.054 19.2818 13.054C19.5971 13.054 19.9593 13.0923 20.3684 13.169C20.7818 13.2415 21.1802 13.3928 21.5637 13.6229C21.9515 13.853 22.2733 14.2003 22.5289 14.6648C22.7846 15.1293 22.9125 15.7514 22.9125 16.5312V23H21.4039V21.6705H21.3272C21.225 21.8835 21.0545 22.1115 20.8159 22.3544C20.5772 22.5973 20.2598 22.804 19.8635 22.9744C19.4672 23.1449 18.9835 23.2301 18.4125 23.2301ZM18.6426 21.875C19.2392 21.875 19.742 21.7578 20.1511 21.5234C20.5645 21.2891 20.8755 20.9865 21.0843 20.6158C21.2974 20.245 21.4039 19.8551 21.4039 19.446V18.0653C21.34 18.142 21.1994 18.2124 20.9821 18.2763C20.769 18.3359 20.5218 18.3892 20.2406 18.4361C19.9636 18.4787 19.693 18.517 19.4288 18.5511C19.1689 18.581 18.9579 18.6065 18.796 18.6278C18.4039 18.679 18.0375 18.7621 17.6966 18.8771C17.3599 18.9879 17.0872 19.1562 16.8784 19.3821C16.6738 19.6037 16.5716 19.9062 16.5716 20.2898C16.5716 20.8139 16.7654 21.2102 17.1532 21.4787C17.5453 21.7429 18.0417 21.875 18.6426 21.875Z" fill="#F0F0F0"/>
<path d="M26.7653 23.1023C26.4499 23.1023 26.1793 22.9893 25.9535 22.7635C25.7276 22.5376 25.6147 22.267 25.6147 21.9517C25.6147 21.6364 25.7276 21.3658 25.9535 21.1399C26.1793 20.9141 26.4499 20.8011 26.7653 20.8011C27.0806 20.8011 27.3512 20.9141 27.5771 21.1399C27.8029 21.3658 27.9158 21.6364 27.9158 21.9517C27.9158 22.1605 27.8626 22.3523 27.756 22.527C27.6538 22.7017 27.5153 22.8423 27.3406 22.9489C27.1701 23.0511 26.9783 23.1023 26.7653 23.1023Z" fill="#10B981"/>
</g>
<defs>
<clipPath id="clip0_1338_2796">
<rect width="32" height="32" fill="white"/>
</clipPath>
</defs>
</svg>
